<mxfile host="app.diagrams.net" modified="2023-11-08T01:53:01.730Z" agent="Mozilla/5.0 (Macintosh; Intel Mac OS X 10_15_7) AppleWebKit/537.36 (KHTML, like Gecko) Chrome/119.0.0.0 Safari/537.36" etag="62LsQCUwBrevfnO2cLE_" version="22.0.8" type="device">
  <diagram name="Page-1" id="Nui-td80n-aQlh77R57F">
    <mxGraphModel dx="922" dy="647" grid="1" gridSize="10" guides="1" tooltips="1" connect="1" arrows="1" fold="1" page="1" pageScale="1" pageWidth="850" pageHeight="1100" math="0" shadow="0">
      <root>
        <mxCell id="0" />
        <mxCell id="1" parent="0" />
        <mxCell id="lEfIgBunnrnoQDWo2BAH-14" value="" style="edgeStyle=orthogonalEdgeStyle;rounded=0;orthogonalLoop=1;jettySize=auto;html=1;" parent="1" source="SdYlDd8xHXBLDSkOT2ET-19" target="SdYlDd8xHXBLDSkOT2ET-9" edge="1">
          <mxGeometry relative="1" as="geometry" />
        </mxCell>
        <mxCell id="SdYlDd8xHXBLDSkOT2ET-19" value="" style="shape=parallelogram;perimeter=parallelogramPerimeter;whiteSpace=wrap;html=1;fixedSize=1;dashed=1;fillColor=#f8cecc;strokeColor=#b85450;" parent="1" vertex="1">
          <mxGeometry x="460" y="310" width="60" height="20" as="geometry" />
        </mxCell>
        <mxCell id="r9puiUjmGgyDkKUMW15J-5" value="" style="group" parent="1" vertex="1" connectable="0">
          <mxGeometry x="479" y="140" width="470" height="318" as="geometry" />
        </mxCell>
        <mxCell id="SdYlDd8xHXBLDSkOT2ET-9" value="" style="rounded=0;whiteSpace=wrap;html=1;fillColor=#d5e8d4;strokeColor=#82b366;dashed=1;" parent="r9puiUjmGgyDkKUMW15J-5" vertex="1">
          <mxGeometry x="-1" y="100" width="80" height="70" as="geometry" />
        </mxCell>
        <mxCell id="r9puiUjmGgyDkKUMW15J-6" value="" style="endArrow=classic;html=1;rounded=0;" parent="r9puiUjmGgyDkKUMW15J-5" edge="1">
          <mxGeometry width="50" height="50" relative="1" as="geometry">
            <mxPoint y="170" as="sourcePoint" />
            <mxPoint y="-70" as="targetPoint" />
          </mxGeometry>
        </mxCell>
        <mxCell id="r9puiUjmGgyDkKUMW15J-7" value="" style="endArrow=classic;html=1;rounded=0;" parent="r9puiUjmGgyDkKUMW15J-5" edge="1">
          <mxGeometry width="50" height="50" relative="1" as="geometry">
            <mxPoint y="170" as="sourcePoint" />
            <mxPoint x="280" y="170" as="targetPoint" />
          </mxGeometry>
        </mxCell>
        <mxCell id="r9puiUjmGgyDkKUMW15J-12" value="" style="curved=1;endArrow=none;html=1;rounded=0;endFill=0;fillColor=#f8cecc;strokeColor=#62b851;strokeWidth=2;" parent="r9puiUjmGgyDkKUMW15J-5" edge="1">
          <mxGeometry width="50" height="50" relative="1" as="geometry">
            <mxPoint x="11" y="-21" as="sourcePoint" />
            <mxPoint x="258" y="150" as="targetPoint" />
            <Array as="points">
              <mxPoint x="61" y="99" />
              <mxPoint x="151" y="139" />
            </Array>
          </mxGeometry>
        </mxCell>
        <mxCell id="r9puiUjmGgyDkKUMW15J-61" value="(x0, y0, 0)" style="text;html=1;strokeColor=none;fillColor=none;align=center;verticalAlign=middle;whiteSpace=wrap;rounded=0;" parent="r9puiUjmGgyDkKUMW15J-5" vertex="1">
          <mxGeometry x="78" y="77" width="60" height="30" as="geometry" />
        </mxCell>
        <mxCell id="r9puiUjmGgyDkKUMW15J-57" value="" style="group" parent="r9puiUjmGgyDkKUMW15J-5" vertex="1" connectable="0">
          <mxGeometry x="45" y="-70" width="135" height="100" as="geometry" />
        </mxCell>
        <mxCell id="r9puiUjmGgyDkKUMW15J-52" value="ix-x" style="ellipse;whiteSpace=wrap;html=1;aspect=fixed;fillColor=#f8cecc;strokeColor=#b85450;strokeWidth=2;dashed=1;" parent="r9puiUjmGgyDkKUMW15J-57" vertex="1">
          <mxGeometry x="67" y="61" width="40" height="40" as="geometry" />
        </mxCell>
        <mxCell id="SdYlDd8xHXBLDSkOT2ET-62" value="&lt;font style=&quot;font-size: 10px;&quot;&gt;Child&lt;/font&gt;" style="text;html=1;strokeColor=none;fillColor=none;align=left;verticalAlign=middle;whiteSpace=wrap;rounded=0;" parent="r9puiUjmGgyDkKUMW15J-5" vertex="1">
          <mxGeometry x="182" y="-10" width="84" height="30" as="geometry" />
        </mxCell>
        <mxCell id="r9puiUjmGgyDkKUMW15J-63" value="(x1, 0, ix1)" style="text;html=1;strokeColor=none;fillColor=none;align=center;verticalAlign=middle;whiteSpace=wrap;rounded=0;" parent="r9puiUjmGgyDkKUMW15J-5" vertex="1">
          <mxGeometry x="9" y="189" width="60" height="30" as="geometry" />
        </mxCell>
        <mxCell id="uFiv7YSaGCMm6PpBl_hh-2" value="" style="shape=image;verticalLabelPosition=bottom;labelBackgroundColor=default;verticalAlign=top;aspect=fixed;imageAspect=0;image=data:image/png,iVBORw0KGgoAAAANSUhEUgAAAmgAAACoCAYAAABUmBLUAAABWGlDQ1BJQ0MgUHJvZmlsZQAAKJF1kM0rRGEUxn/jo5mYDGVJTUlZDMmIsWQINeU2PmKUunPnS82M152LlKU9FlayYuUfICt2FnZKKXtrKSkzXefOYAY5dTq/np73dN4H6jy6UtkGIJe3zOjkmH9xKeZ3P9GMmzZaaNONghrVtIhY+Jo/6/UelzPvep1doe74wd7NWezkuXjoOdrV/vp/VFMiWTBkFqX7DWVa4AoIa1uWcnhHuN2Uo4T3HU5X+NTheIUvyp65aFj4VrjVyOgJ4UfhQLxGT9dwLrthfN7gXO9N5udnnT3SHWhMEcHPAMMMMUGIhX/8g2V/mDUU25iskiaDJW9HRVFkSQpPk8egj0B5Z7900Mn5d35VTc3AyCbU6VVtZRzOu8C3XtV65D++FFwvK93Uv1N1vTYUUsGBCntNaHyz7ZdOcF9CybTt92PbLkmG9Q9wtf4BkuZhduEIQHQAAAYuZVhJZk1NACoAAAAIAAQBGgAFAAAAAQAAAD4BGwAFAAAAAQAAAEYBKAADAAAAAQACAACHaQAEAAAAAQAAAE4AAAAAAAAAkAAAAAEAAACQAAAAAQADkoYABwAABbYAAAB4oAIABAAAAAEAAAJooAMABAAAAAEAAACoAAAAAEFTQ0lJAAAAQUFBRmdIamFiVlJmVEJ4RkdKL1p1Ylp3TGIwRitvZlNmMXM1bElKdEQ0b1dyN1p5bE5KaTRWcTZkM0RBd1RtMwpOM2RzMmR2ZDdzNEIxOHVaZVREVkdEWHhxZG9IRllpcE5jYXEwY2FZcURHS0dtT0lBbEVUbzZaUGZkRDQ0SXN4CmpZbXp0NWVLaHRtOW5mbSttZS83ZnQ5dmZybWtxYWsyRFFSV29JQTg2OVp2OE1iOFU4U3lWVU1mOW1OTG1WQzUKRmZGVHc0ejVqZVFGb2xDN0JzRExyeVJFWDFnK1EvSWtGU29mK3JhaU1tSVpCbVh3aHJodjQ2YkdlKzlyMnQvYwpjditCZzRjZU9QcHdaL2VqWndiT2o0eU9ZNUsra0RWcEx1clhjNXEyWExYWko5YjdoOEx5d1VtU3QwZjRYQzR5CjZGYzBiTnZYcTJ0cXQyemR0cjF1QnhNWVloNjJqcTFuRzFnRnEyVGU2enQzN2Q2elY5cDNUd1BieURheHpjekgKcWxrOTI4bDJzejFNaWlXeFRUUlZKMUhGMEF3cmtqVlNKRXBWcXBHWWFSR2NUV3BrTElzenVwcFdGVXg1dTVFVQpwb1MzbGNUS1pNWXljbnJxaEJNNFloczVTeUVSTWtNYlFIa3NCMXA5YllmYm8ySDUvS211ZUZndUhaUk5ySkNlCmdNUWZJRUpXdGZUZ2tZNkhSdHcyZEp3bE1YZEo3S0Z5d0Z4SE1CYVd6NWI2RllVbDM3SGpqd3h6QW14cXFYcUcKaWVkNGdsQlhpZWYrSE1VY3IxemFtUStkY09KY1kvbWtyK2ZVNmQ2N05nY1RvbnlWekZGaXN4cTJnOVVteEtWNAp5bEJ5V2FMVEVvTFIxb0JKeHdyWW9xcWlrYUkzbnJNSnh6NkpNMlNVTHgyczlsaWh4RnBSYXVTZWxKUTJMUDdUCnFWVHlybzRvNEt4dDU3TkpmaktMNllUOS96M0h1ZGJlYUk2bU84WUtxbTV5cExyaUZrcm5OSWthRXMyYlJFcXAKRnVkRnkvTUZWaXlWWTVXVUNXeGhoWEoxZWgzaDlJWFB6ZmF6TGJObjJWWldOeGlXZXpqQUZUa1M5UTBPeFlhNQpMYXVYQ0NjbTNhUGhqTTN0TUcrc29iUEp2VUpSWk52WTlzRitROGVLd1ptT2o1VXp6TVdEM0V3OHhwbnNWaFZICkdOakt6eVVjWjFKSmlEV3JDRTY1bk0rbGdtdjZHenJiM0ZwTEdkK0U2bWljcWh4QmFLSDRuSERvMXh0c0YwODUKcWZHeTNWeDRjNU5CUjFYNjRmYWVWb2svZ0ZVNWQzdnhkQy9iNjk3aU5YODg3dlhIS1JkaU1sMkk2cW85alUxcApxaTFZOUV2eGl6bWNrbVlTaFVDeE9lOThwV05TbnpPUHQwbXJvMlExYTJwRWlsaUVyQjNXNGxpdHhXYTFOTGxaCldzdForUHY0R3NNOUloMTNDM3I5dkt1cDZZUlllMWUyLzlJNFA1VUlnZ3BRRGVxQkgrd0hiZUFJNkFWOVlBREkKWUJvVXdSUGdHWEFGdkFSZUE2K0ROOENiNEMzd0RuZ1gzQVR2Z3cvQVorQno4Q1g0Q253TkZzRTNZQW1zZ08vQQpEK0FXdUExK0EzK0FPN0FTYm9ZU2JJSHQ4Q2dNd1RDTXdpRTRETWVoQ2kxNENSYmhaZmdVZkJaZWdTL0NxL0JsCitEWjhEMzRFRitBaS9CSCtCSCtCdDRTYndvZkN4OElud3FmQ2d2Q0ZzQ2g4TC93czNCWitGLzRVL2hMdUNIOGoKRDZwRUlxcEZkYWdSTmFFRHFBdWRSQ05JUVJQSVJIbFVRQXc5aVo1R3o2TVgwRlUwaStiUnEraWFaOEF6Nk5GYwpDUWl3L05jeEEvNHpQT1kvczZQSXZnPT3yC/fNAAAACXBIWXMAABYlAAAWJQFJUiTwAAAIo2lUWHRYTUw6Y29tLmFkb2JlLnhtcAAAAAAAPHg6eG1wbWV0YSB4bWxuczp4PSJhZG9iZTpuczptZXRhLyIgeDp4bXB0az0iWE1QIENvcmUgNi4wLjAiPgogICA8cmRmOlJERiB4bWxuczpyZGY9Imh0dHA6Ly93d3cudzMub3JnLzE5OTkvMDIvMjItcmRmLXN5bnRheC1ucyMiPgogICAgICA8cmRmOkRlc2NyaXB0aW9uIHJkZjphYm91dD0iIgogICAgICAgICAgICB4bWxuczp0aWZmPSJodHRwOi8vbnMuYWRvYmUuY29tL3RpZmYvMS4wLyIKICAgICAgICAgICAgeG1sbnM6ZXhpZj0iaHR0cDovL25zLmFkb2JlLmNvbS9leGlmLzEuMC8iPgogICAgICAgICA8dGlmZjpZUmVzb2x1dGlvbj4xNDQ8L3RpZmY6WVJlc29sdXRpb24+CiAgICAgICAgIDx0aWZmOlhSZXNvbHV0aW9uPjE0NDwvdGlmZjpYUmVzb2x1dGlvbj4KICAgICAgICAgPHRpZmY6UmVzb2x1dGlvblVuaXQ+MjwvdGlmZjpSZXNvbHV0aW9uVW5pdD4KICAgICAgICAgPGV4aWY6UGl4ZWxZRGltZW5zaW9uPjE2ODwvZXhpZjpQaXhlbFlEaW1lbnNpb24+CiAgICAgICAgIDxleGlmOlVzZXJDb21tZW50PkFBQUZnSGphYlZSZlRCeEZHSi9adWJad0xiMEYrb2ZTZjFzNWxJSnRENG9XcjdaeWxOSmk0VnE2ZDNEQXdUbTMmI3hBO04zZHMyZHZkN3M0QjE4dVplVERWR0RYeHFkb0hGWWlwTmNhcTBjYVlxREdLR21PSUFsRVRvNlpQZmRENDRJc3gmI3hBO2pZbXp0NWVLaHRtOW5mbSttZS83ZnQ5dmZybWtxYWsyRFFSV29JQTg2OVp2OE1iOFU4U3lWVU1mOW1OTG1WQzUmI3hBO0ZmRlR3NHo1amVRRm9sQzdCc0RMcnlSRVgxZytRL0lrRlNvZityYWlNbUlaQm1Yd2hyaHY0NmJHZSs5cjJ0L2MmI3hBO2N2K0JnNGNlT1Bwd1ovZWpad2JPajR5T1k1SytrRFZwTHVyWGM1cTJYTFhaSjliN2g4THl3VW1TdDBmNFhDNHkmI3hBOzZGYzBiTnZYcTJ0cXQyemR0cjF1QnhNWVloNjJqcTFuRzFnRnEyVGU2enQzN2Q2elY5cDNUd1BieURheHpjekgmI3hBO3FsazkyOGwyc3oxTWlpV3hUVFJWSjFIRjBBd3JralZTSkVwVnFwR1lhUkdjVFdwa0xJc3p1cHBXRlV4NXU1RVUmI3hBO3BvUzNsY1RLWk1ZeWNucnFoQk00WWhzNVN5RVJNa01iUUhrc0IxcDliWWZibzJINS9LbXVlRmd1SFpSTnJKQ2UmI3hBO2dNUWZJRUpXdGZUZ2tZNkhSdHcyZEp3bE1YZEo3S0Z5d0Z4SE1CYVd6NWI2RllVbDM3SGpqd3h6QW14cXFYcUcmI3hBO2llZDRnbEJYaWVmK0hNVWNyMXphbVErZGNPSmNZL21rcitmVTZkNjdOZ2NUb255VnpGRmlzeHEyZzlVbXhLVjQmI3hBO3lsQnlXYUxURW9MUjFvQkp4d3JZb3FxaWthSTNuck1KeHo2Sk0yU1VMeDJzOWxpaHhGcFJhdVNlbEpRMkxQN1QmI3hBO3FWVHlybzRvNEt4dDU3TkpmaktMNllUOS96M0h1ZGJlYUk2bU84WUtxbTV5cExyaUZrcm5OSWthRXMyYlJFcXAmI3hBO0Z1ZEZ5L01GVml5Vlk1V1VDV3hoaFhKMWVoM2g5SVhQemZhekxiTm4yVlpXTnhpV2V6akFGVGtTOVEwT3hZYTUmI3hBO0xhdVhDQ2NtM2FQaGpNM3RNRytzb2JQSnZVSlJaTnZZOXNGK1E4ZUt3Wm1PajVVenpNV0QzRXc4eHBuc1ZoVkgmI3hBO0dOakt6eVVjWjFKSmlEV3JDRTY1bk0rbGdtdjZHenJiM0ZwTEdkK0U2bWljcWh4QmFLSDRuSERvMXh0c0YwODUmI3hBO3FmR3kzVng0YzVOQlIxWDY0ZmFlVm9rL2dGVTVkM3Z4ZEMvYjY5N2lOWDg4N3ZYSEtSZGlNbDJJNnFvOWpVMXAmI3hBO3FpMVk5RXZ4aXptY2ttWVNoVUN4T2U5OHBXTlNuek9QdDBtcm8yUTFhMnBFaWxpRXJCM1c0bGl0eFdhMU5MbFomI3hBO1dzdForUHY0R3NNOUloMTNDM3I5dkt1cDZZUlllMWUyLzlJNFA1VUlnZ3BRRGVxQkgrd0hiZUFJNkFWOVlBREkmI3hBO1lCb1V3UlBnR1hBRnZBUmVBNitETjhDYjRDM3dEbmdYM0FUdmd3L0FaK0J6OENYNENud05Gc0UzWUFtc2dPL0EmI3hBO0QrQVd1QTErQTMrQU83QVNib1lTYklIdDhDZ013VENNd2lFNERNZWhDaTE0Q1JiaFpmZ1VmQlplZ1MvQ3EvQmwmI3hBOytEWjhEMzRFRitBaS9CSCtCSCtCdDRTYndvZkN4OElud3FmQ2d2Q0ZzQ2g4TC93czNCWitGLzRVL2hMdUNIOGomI3hBO0Q2cEVJcXBGZGFnUk5hRURxQXVkUkNOSVFSUElSSGxVUUF3OWlaNUd6Nk1YMEZVMGkrYlJxK2lhWjhBejZORmMmI3hBO0NRaXcvTmN4QS80elBPWS9zNlBJdmc9PTwvZXhpZjpVc2VyQ29tbWVudD4KICAgICAgICAgPGV4aWY6UGl4ZWxYRGltZW5zaW9uPjYxNjwvZXhpZjpQaXhlbFhEaW1lbnNpb24+CiAgICAgIDwvcmRmOkRlc2NyaXB0aW9uPgogICA8L3JkZjpSREY+CjwveDp4bXBtZXRhPgoqEbFkAAA98UlEQVR4Ae2dB7wdVbm+/yH03ruQAAEpV3pvgQCKoihIEVAEFBELiooIUoIgXKRIERBRgSBcAfWKckVpoUXaVWnSSUIJvfdQ7v994nyyMqzZZ+9z5uyz9znv9/u9WWvW+taaNc+0b9bM2fl//89mAiZgAiZgAiZgAiZgAiZgAiZgAiZgAiZgAiZgAiZgAiZgAiYw+AmM0SZeKN0jvSDdKZ0vjZZsJmACJmACJmACJmACbSbwU63vDekcaU9pD+ki6f8KnaF0mGQzARMwARMwARMwARNoA4F9tY7XpHUy69pPZRGkHZupd5EJmIAJmIAJmIAJmEA/EOBV5hPSxzN9M2t2i0SQ9rw0XLKZQFcQaHXKF/8ZumLL3hvkKGW3k0a8V+ScCZiACZjAICAwm7bhXYkAjEAtZ0epMGbR1s45uMwEOo0AgdZfpKnSS9Jz0tPSU9KThcg/I/Hk8Yr0tvQNKWcHqpATBb9npeiLlD5elahnyrlddqRWdK/0G2mi9GvJT1CCYDMBEzCBASRwrdbNrNfD0v0SwdU/pNuku6WHpEclfPjQv8peV8U/i8qbKpzeSsrnT/LOmkDHEphRI1tQmqlQXwdKX8ywzVGoqj/82mGraSUHl1a0o5YvkX5VKvfi0CWwkDZ9T2kVaRlpKekVaXKh65VeKL0p2UzABOohMF7d8NC8sLSZNIsUxl9g3iiRci5eKTWy9VS5rHR7hdOaRfk7Su+q8HGxCXQcgfk0IgKmECdETAVH+rOkHj+mlHNGYLaoxCvF0dJ9En3cKW0sLSlxM5xdaoftpZXENqTp0e1YudfR8QTm1AhPl16T0uMjl2cm+XDJs6+CYDOBmgkQjMV594jy89bYP/cjAjP6P7nGft2VCbSdAK8y40SJtLcHNa8V6eO8tm/Fv1Y4WklsQ5ryKtY2tAnMqs2/Worj4g7lvyl9TPqcdKbE6/yoj3ScymaQbCZgAvUQ4IGd2ek4x06pp9tpvfB26K9F31OUzjOt1P+YQJcSGEwB2szaB7yeihOflG/rFpFsQ5sAN4H0uNgpg2NTlfEtZepH/mzJZgImUA+BMeomPce2q6fbab3Eef6glparsV93ZQIDQmAwBWgAnEvaS2IW74fS4pLNBPi+LL0pMFu2dAbLl0t+0WbDjK+LTMAEWifwAzWJ84o/Ilug9S6yLY4s+r1VqR/Ks4hc2G0EBluA1m38Pd7+J0AgFjeENOXVZtlmVAHfn6V+5E8qO3rZBEygVwSuU6s4v6o+8m+1Y74zps9xEp8z2Eyg6wj4W5qu22UecA0E+MkXflqmbC+XC7TMzFrur774a09bZxLghsznDbbOJ8AfnK2TDHN8ku9t9lg1PED6tvRZ6Q0pbIIya8eCUxPoZALMDgykrayVLy/x13SpuFEeJ4Xhs6a0gsQHpZMk/kL0aom/zsnZB1S4hhT98hem5GnP7MfjUpX9hyo2klaT+KiU39DhN+JuLbSj0oWlr0jYLBIfl/OhKxcD/IdL3CRCtynPOreWXpEIELj5EyTjw02F/fFbKWxVZUZKr0n4D5MYP/3/RUptfi3wp+q0WULiwkf/T0tPSjdKN0hVvFQ1rT2vF+AUvMizXbwuYKzrSOyLxSReR9wh/UN6QOKJtS7j495tJLaV9bP99A8j6uDFtk2QUltZC6OkYMZ+gAXMx0vYq9KF0m4sFDZR6ZWxUErxb8WWkjPH3t3Sva007CBfjqcPSjC/ReJYSm1BLawicV4QwDY6rlTdNuP4fUji2Fhe4hitw/irQrb3Kem+Ojp0H9MIbKB/uf6FjY9ML9Pj1W4faTvp96U++IWB9aUXSuVeNIGuIdDOV5xniAo3gLLiYk9wcrHERbbsw/KdEid4zvZVYa4NZRvnGqiMoIuTOm3HDSiCg7Sc/BwStq1Urisvf00+I3rwe131qR2rhXI/scyNKOwbyuT2W/hGyk1rj2iUSSerLHzTdIrKvyk9VlGP78vSqRI3sjpsS3WSjiGX/01mRYc3aJfOGBO4weI0aXdpLqnKCLTK6/9BhfNXVE5QGf5XKU+A2C02pwY6TiIgi23guDlUGibNLZ0vRR3po9I2UifYyhpEjK2uY/FA9cmDV/R7k/IEsFV2iCoI4vaqcnD5vwkcoVxw5TqfXtf+7dRk5sdFXxy/X03Etffb0iUS+3G4ZDOBriSQu9Gf3Mst4QbKyXdeRfvDVH6/VA6ACNC40DLjRPurJW6mm0q/kigL4ZO7EO+scmYv0gtrtMkFaIvLl6djfOiT9c0nYdzYl5XiAhD9xE19I9VdK90iRV2aUofPohJ5xDamPrdrmRtfagSZd0ip7yNa5gYxj4TtKKX9kF9N4kL3HxIXpxek1OdHWp5BKtuVKnhYSn3L+Qmq52K3u/QT6SUp9XlSy2tJfbW11UGwSgOeWNd1qmfbyvYFFUyUwo+L/j3SX6XcNqu4oa2k2ugrTT+WabWYysrHMm0OyPh2YhHHDMcW+/CLEsc358qzEttxkETAyT7fTVpSiqCd60Yn3Pg4jxnr21Jv9reaTWef1xLH0CESPG6W6P8sKWexfnxuyDm4bDoCnOOwQlwDe2snq2H00yi9rbcrcDsT6AQC7QzQYnvHKFM+qR5QGRfZ3cKpSLlI8sop9f9uySddXKXkS7tNUocif2Lit1emPoqOS/wYS2rcoCZL6dgmaTl3o/hjye9rWq6yq1VBn7RhFiM1ZoDS9ZHfIHVQnoAtDfLwabS+Y1Rf7vNFlX1KKtvqKohAOto8obIRZcc+LJ+rttF3pFs16G9k4t9oOxt08e8qgtBYZ6QEqeX9QIMPZ3xpM47KDje25zrpaWmF0lhP0HJsO2kEp5x3aflCpXb9vbiLVnCxlB7vM2mZgIpjMDWOl0ukrdPCHvLLqp4HvJMSP/Y92/xgUpZmGVMwOSOtaEOe68yh0qn9pK/UvA2zqb83peBFkNUbm12N2OfRT6P0gt6swG1MoFMIDESAtpw2PndSHVwB5W8l/3Mq/Cies+TLenIBGjenGMM3lK+yFVURfnNknBhz1EcaN7TU/aslv7vSyiQPm7j4bJSUR3asMrGeSFeNyiT9bcnvsqSunOUbjugr0o+UnZLlHTL+f0jq+5pdRR0EgxjPVQ065QaF3yRpRqm3tpYa8pAQ6yRlxmgZKWejVJj6Rp7xdLrtrgEy3lzg+/2ijvrxUthxysQ29mX2I/prNWVmlPWzjw6V4kHoGeVvk7CZJQLMOH6uoLBJO0V+XA8JALC5JQI21lkVoJ1Z1OOzs9RO47gsP4jF/qkjfU39z1rjBm2uvtJxbVdj3+7KBAYlgYEI0JYSyfREJT9RigtuGfRfSv4EV1U2pyrKfW+ccU6DPi5yv5Q+IcXFOW3yIy38Z1qQ5BdVfqqUrjMXrPy55IN/blysi7o7pJzxlD9FivVdrHxudqccyPG9W9XFNheg8fquyoar4iEpxkAKQ4LLuuyP6ijtn/zamc4XVBk3Eur7MnvGcQPzdJ2TtUyA3sh+p8q0zata/mCjBh1Sx7beVDGWc1Ue27R74rOA8sdI35HgnrMlVXi69HeJV+0EVcxiMPPaVyMAekSKsV2jPOu7S+IawUxgel7fp+UxUjNGYPeSxAx1GNse6zovCksp6wgfrgVl608erIvZ8i37SfCs045QZ8GKAJrjyWYCJtCAQKcEaFzEq+x/VBEnNinfhVRZswEaF+K0z8jz/RMXfMbDDX8RqSe7UA7RnpRghSA0LJ0VS/3OD4ciJYB6RsLnq0VZLmEmjxvPsrnKoqyVoKsV31jlKcqk20L+21FZQ0rwWu7/4ky/EYg+rbpccJ1p8r4iZt0uldL1Xa/lhd/n+f4C9tmu0jnS8dLyUqcbY35D2rpioHerPFgsUeGTK95Iha9Kj0p7SwS3u0gEgtyQ95f6agRSe0n3S4zx2SIl/0qRv1Mp6x0uNWsj5ch5u2bS4Arlg8NWSXlkF0/qYVa2dvAor7OTl6/V4ILnQMzAdjIbj80EsgQ6JUBrdHPvjwBtbdFIv4eIC0c55YZznMTrjirbTBXldj9InGlP/XMSAWD4sv6FpLDPKkMdN5pG6wv/YcoQ/PGqYKzEbA7B64PSi1KsJ9KqWbHeBGjfyfRP0FunTVBnMXZSbqC8VgwjUI0b9GFR2GIKw19IsR4CCWYxZ5IGs1UFLxyPMIAHQVCzNr8c2Rcc3+k+oj2B7uMSfRK01GGM/zNSeg4/o2XOBfZpb4xAPWxJZTjeGPOTUo4XQWAcN8waptZuHum6OzE/mwaV7quTWxgk5+LPpWVaaGNXExgUBAga4iIT6am93LJ44hzXQ/ulMuvcs0Gb/gjQWN320lNSbHej9HL5pRdwLU5nvMpJ20/RMv7MVnDjoO7r0q+LfPgeoOWwCEh+FgUVKYHW0dIjUvQTKYHZ9RJBWpRFSruc9SZA+4w6in4j/WOu8z6UbZtZx5lJf/sV9QS0vXldwo38jKIPtoFzYRspteW08HlpjbRwEOc5J2J/9nQcphgOL9oxm5yzL6mQfs/PVfaijJkuHkhirKQEh+dIK0t9tTi26LccfEXfHIux/p2isEgPL+raxaO0+o5b3LzgEbwIpJu1XeVIuxWbbWA/ExgsBO7ShsRJE+nZvdy4mM04oof2nRKgMUxmqn4o5YKd4BHpUTSoMP7QIPwi/bTKPleUv6p0XmmzYjl8HtAygcKqSXmjYID++LYn2pPyZHqMtI40XMLihpj61Rmg7a11pH2T5+ZYp8Hln1K6Hl7NLSoR/E4u6n6stDd2ihpF339TfmSmk0MLH4KBoWA8nAWT3VrYYGZuaXdwRZv1inqOVWbpemsbquGfpBgjec6hW6Ubi/J3lf63tJbUWxuvhrGOzSo6uS/xWaTk0y4epdV27OLYhBX7p5UHqhvk//eKLVtS5acX9VwX75EukOr45lHd2EygfQS4qZXtIRWsVCrkBtiqMf08f9Ho9lYbD4D/7Fon28n2H1RoaaWc2GtLH5MImlLbVgtVN6BzVEegx1R+GDNTcxYLXDS4gFwtcRH5oIQtK20pxRPlLcoTLORsaxX+UpohqZyg/J7SvUlZO7Ls77JVjbvs1+wyN8hjJbY5bBZlviHdKS0lvS2dILVqJ6rBV4tG5yoloH2jWE4TjgWMIKCRDVMl4+12G5NswPgk3yg7qypXKxyqOBHMYDNLm0oXs9CinSb/Lxdtpir9nsR+vF/iAYix/0BiVppzFXGsnCS1YuzLCO6eUv6aTOPFVTaqKL9b6ZOJT7t4DNc6eWhcOFl3nVm2i9f9ddjopBPOXR7mmzFmSjeQvpVx3khlf5ael46QrpO4fu8n/a/0bak31wY1s5lAZxDg5s6NJdXrWp6jxeF9IekjLlxVXXBjTddHnnFU2f+oIvW/ucpR5QREqS/5jTP+9EHd9pm6KBqpDAFQ9Peu8nNHZSb9ZeIbbSKNCz7NuIBEOemV0stFWSMON5baPaPlBaScEXyk6yC/WM5RZfu04Btd/CbTZpOorDGdSX09UlrXi1qeVJSdq7RVI+iDxztS7sIf/Y1Q5hUJXxjl7EMqvEEiYLhD2lfqViPoiGOGV+Q5G6NCHjBSW1cL0W7LtCLJsx/DJ4KspLqpbJyzrJ8bcdhLyqRjYoxTJNZ3idSqcd7HWP9U0XiXxIfAMbV28RihlfKAEmOtO+WaRLDZV6MPHn5ifCc32SETCrdKbOOipTbza5kg7y1pVKmOgPVxifURxNlMoGsJzKaRPy3FyRMpF6BmbUU5ctOkLU80PVknBGhc0BkvwV8jW1KVwYQbOjM4VbaOKsI3TZkVS21eLbwmpT7keRKcXcoZMw8EAWkbgqQqI3BJfcm3EqCx3VW2hCoI4tP+n9Byq0F9Vf/l8v1L64r1EjCvXHbuYfmoUl/cyMt6SmXMyMR6SLeQysa+KgeP+H6q7Nhhy8M1nu2lL0rp8byHlmObz1Y+Z39V4d9KFZ/QcrTbrFSXLobPYWlhC3luxJ+X0nOE6xf9cu6kxg38c1LVMZ/6lvMfVUGM9cflymL5zMRnh5JPu3iw2hWkDfpJS7OCGoxjIniSbtdknwcV7XJB8uFF3YUVfX2pqD+/ot7FJtA1BD6ikRJ8pCcRN9xmTtDF5Xdf0ZYnrmbadFKAxjZvLVUZwUhwqZpVSNsytR7+keZmxX6R8Tsp7aiU56YaQXD0O77kE4vctB6Twi9StiVn+6gwfCI9OOdYlJ1R8idQ4hjqL2NW9DkpxhbpH1pc4eGZPqKvntIRmXVtXNHfzzK+nVR0aTLuA5KBXZ6Ufyspj+wmRf1eUVCkOxblMMSnyt5SBT4nVDn0onyE2sS+4yGmDuNYjj4PzHTIgwjXx/BZuOQzkDxKQ+mIxbEJK64VC/QwKmbOaMPMGYw/I5XtZhVQV3WdWq+of1PpQpLNBLqaADfpqVJcdEi5KVLOjE/ZeJrlRv2GhC8n3t5SI5tHlQR0a0vpesgzS0IdN2OMk5RldJWU+v+9KF9EadhcyuDLuFJf8jsVddG3Fqe9Egk/Ap9dKSwZT+rpTFR6Myu5/nvxC8pFv6RVs2I5BsxENrLfqjLtmzxPiqkxc3CNVPZj+QiJGaf5pNTYx1X+MyWO7JNjJfZ16l81y5A07XP2yNI6WX8rry8OyrRPt6FRnos8AXLZ1ldBrt0vy44dtLyYxpLuP847bLSUbsvxFCb2AeUflm6ShiXlZHeQou1oCios1nt6RX1vildXo1j3or3pINNmZNLneaV6tv2CpP6uUj2LA8kjM5wBLeK8uU2KfXR7D6Nhf3KMhf9LyvPAmdqsWpgq4cO1PWdcB6OPT+ccXGYC3UaAoOFuKQ7sSLlB3StdJ90pxXc5UU/ZhlJPRkAXbapSgi9sNanKJy1fd5r3vz6WTctz+e8WviT3SGWf+1V2kXSMNE5KZ6G4YRGg9GQ8Xb8gRd8nNWjA9xXhN76BX1Qtosw/pWgT6QSVnSwx9teL+u8oZd3hU065CYVVBWi0mSSdKp0tPSCl/TylZYLyGaT+NmYpYtsYw/UtrHAp+abjbjXPsZ8zgtfJUrm/7XPOHVLGQ1LMTBBwwXUDaYrE7G8cMxOVX0jCPiqx7zn2lpDKtrUKgsEW5cpimcAmfI6r8OlNMQHAhdLPe9O4QZtLVMd4n5VWKvxGKf2zFNtByrlRtoHkUR7LQCx/XCs9VjpN+puU8oIndUcnwu9iaZKU+pL/hVS2dVUQfluWK4tlzs3w+XKFj4tNoOsIcCHdVOLE4OklDvJySt2N0oESJ0MzdrqcePKh7TPSE9Lj0tMSQQ03YIIkbIT0mvSqxEzekxI3EVJOcoJEbjRjJGw/Ke2bfhHreVl6S9pDCiMQpP3x0lekXMDGeK6QPim1YmPlDC/GOLJBw0+r7h2JcXBRb8ZmldOO0qUS21TeL3eq7HMSRrDIxfA26UUpfJ9XfhEpLBegraHKMyXYRTtS2N8gHS1xs2+nHaSVMQa2e8MWVrx00S7djlbysK6yFVXxO4njdLK0n9Tp9nUNkPON445zChZXSxwTs0knStS9IbG/qec8WFDK2QoqDJ6fyjmojGMlfPat8Omk4lk0mJOLMb+r9Pkif59S9nNsC+dw2QYjj/I2Nlq+TJXBpy8p1991Myv6RNL/Zpn6KIp1HxYFTk1gMBEYpo3hos3N+uPSntJW0pJSt9ui2oARpY3g24jVpXWklSUu0r01+udm15PNJwduXr0xZq4Wlj5UaO7edKI2uQBtsaQv8mtKrGugbQkNYN6BHsQgWD/HzloSwfwqEud6astpYSdpF4n6RkbbCOT2q3DkfIobJudYt9hIDZSAYDdpJWlmieCWbeFBcy6pbIOZR3lbB2KZB9Q4ljZpMIB4gD2hgY+rTMAETKCjCfQUoHX04D24jiDwR42Cm+aPK0azTVHPjCyvJTvVeADYX9pDItAqGwFrBAfMsFXZYOFRtX0DWb6DVh77YHSDgTDzid/pDXxcZQImYAIdTcABWkfvnq4YHK82uRlOlnIB2Lii/lSlnWqLa2DMisXNPz6fiPEyoz6xqOfmv3xUZNLBwCOzWR1RxOcgsY/a/c1jRwDwIEzABIYOAQdoQ2df99eWMtsUs0bHKZ/OPm2rZV43TZI64TW5hpG1XVUaN37S8uuz7yT1B2R7eK9wMPB4b2s6KzfUv/HrrL3h0ZiACfQLgRHqlW+NDpHSG1PcnKhbSLKZQDMEZpfTORJ/+MIfH5C/VGK2aYLUaMZJ1QNu6bdN52o0fKcXtrMyUyXOjbOisIe023n0sHkDVk3wO1i/eRwwqF6xCZhAZxGYrOGUA7PycqPvbDprazyaTiEwSgPhW62DpS9I60vdYMzu8Y0cf6W8VDHgVZUeLRF0Mgt4jNTsX63LdZp1K48YfyemMVvb7d88diJbj8kETKADCNytMTwjPSZNkh6QHpQI3B6Xnpd6epUjF5sJDBoCm2tL7pKY9eP454HlDelKiWDN1hkE/I1fZ+wHj8IETMAETMAE2kqAnxLaXlpLmrmta/bKmiHAa86YRevWbx6b2U77mIAJmIAJmIAJmEBXEfA3fl21uzzYngjw1GEzARMwARMwgcFCgG/81pZGSk9KvKL+q2QzARMwARMwARMwARMwARMwARMwARMwARMwARMwARMwARMwARMwARMwARMwARMwARMwARMwARMwARMwgW4mwH8Zd6F0j/SCdKd0vjRaspmACZiACZiACZiACbSZwE+1Pn5H8RxpT2kP6SIpfhD+DOX9x5uCYDMBEzABEzABEzCBdhDYVyt5TVons7L9VBZB2rGZeheZgAmYgAmYgAmYgAn0AwFeZT4hfTzTN7Nmt0gEafyPJcOlf/1DJmP8x8DLShtLm0qLSvyC9qsS/wddGH78P3v833RPR2Ep5XdpRkuvS7xzHao2ozZ8bmlBaXFpaYn/MHpFif9e6W3JZgImYAImYAImMHgIzKZN4f+JnVP6kHSaVLYRKiDemlXif8WYQsBQtpVUcJK0oUSnZXtTBb+X+E+Cb5fGSZ+ReKf6ealsR6rgICneq/JxXAR0Zd/BvjxWGwiLnG2iwutyFQNcdpbWnztO6hrWDeroZ3V15n5MwARMYBARmEfbwoM7EyO29hO4VqtkEmWqROyD2B/EM0xYzVKk3COvkohtcsbk1D+llaWbcg4qSye+5i/7sMLDJQYQ70L5D7L/LP1cIqKbKEUdg+Q/147lXylfttVUEPVpumvZcYgsf7eCB2yInDvNiPbT/dYfeY4rmwmYgAmYwPQEmAThg3LeTM03fZWX2kTgCK3nHOlPEvsivQfyKpLyCyQmGXaWGhn301UlYq2c/UGF9E9stWTZ4UtFJQ5Ect+TyjMndPxRiagyHSj5XIC2V8YP36OloWjDtdGLS3tIZX7MoHWaLaMBlcdJ0H6exMWD2UA0QSr7xX6m/hDpROky6XUp9b1ZyzYTMAETMIH3CKyg7LtSXCu3e6/KuQEicGOyPx5Rft4axzFKfb1T9H9yud8lVPBiUckBcWzZobRM4PbfUhw8pLkAbXTJJ/wPVPlQNqatg0WknRigrVca5+laLgft7Md9Sn6xTYtRWbIRWub/xgufScrbTMAEBp7AShoCD2W2gScwQkN4Q+I6+YL0Ack2cARm16rTt4un1DiUmdTXXyX29RSJ+GA6O0xLccMkXXq62vwC71+vkaJdLkDD5/rEB98npUWkoWy5V4ed+IrzE9pJsX+ZAauyVgI0+uAAfFCib/7s2GYCJjDwBJ7VEO4c+GF4BAWBDyv9mrSgiQw4gTEaQdwLSeuc0STYo0/uictJ77PfqiRdOTNqzdg2cop2uQCNPuaSeNV5nvRDiVd8Q926JUD7onZU7N+RDXZaqwEaXR2S9M0xYjMBExhYAswQTBrYIXjtJtCRBH6gUcW9kFfPC9Q0yiOLfm9VWjlxdX/hFAP4dpMrZ2qODxhpVxWgNdnVkHLrlgDt4GLfVv3VSey03gRoyxd9c+wsGx05NQETGDACDtAGDL1X3OEErtP4Ij66vaaxHl30OU7prLk+ZygKCbRSI1r8ssQfBTSyt1R5YeHwTiNH13UlgYWLUfPnwXUbDwVTi05jPXWvw/2ZQBDgAsgnFzYTqIOAj6c6KHZHH7NpmOskQx2f5Hub5Tv/AyQmwz4r8b1h2ARl1mZhxqJkstKlizwJB99p0m7STyU+YHtAIoIs209UQOf8iWhqH9DCGhKzRWiOIuVjO35n7XEpNX4fhFmV8I/0ZZUdlzjiw8frfMxKn89L/5Auk5h6TA2wYyTe6y4hPSOxrTdIj0g520yFTF+y/hgzeZ4umY4kqGVnrSktJrHOOyTGUMVIVbUZr4hhtYq0kjRcIti5T/q79JBUly1cdFTFqi/r4Vh6WGLfbC7xZ8W86oQ1In+VdLnENm4trS7NIt0j8Vr+NamR1cWqjn6W0kA5H+6W7m006A6vm1/j+6DE/rtFeltKje9lODafk/hjkE54cON85rx4WuL68a5Ul82rjtjepyTOQVtrBHw8Tc+rt8dTN3Kcfss7d2kDDW3mZHjjk3xvsser0T7SdtLvSx0squX1pRfS8u9pgQtuIz2reoKgsdJWEoFKI9tXlVX9bZxpeEaFf1zgR6j+EomLa67f21W+qYQNk74lcdHM+b6hcj56z20DAVyuzRSVf1N6rKKeNi9Lp0qcZI2MAKS8jhyTtA9u8H/ItEv74WZ5itTT+uXSlK0rr/2kVXvw5mBLxxF5AthGtoMq6b+K6SGqGyndKkWfkbJv15RyVheruvr5igb5lhRjv0p5Hh66yThmx0kcY7EdBDyHSpxvc0vnS1FH+qi0jTTQtrIGEOOq69xgmw6UuJZE3zcpz42yyjieCeL2qnIY4PI3tf5JbRqDj6f3g/6Oilo5nuihmzm+n0BnlhyhYcU5/q7yC/RhmD8u+uJa+tVEX1Oe2TRiHI4BJiX+bTz1PinFIJpJH5I/AQsX5pztrMJ7pfSAi35zwchh8mUmaKoUfqTvSB+SmHFj+RppT2lT6Rwp9X1Fy6Ok84ry55UeLn1E2kV6UUr9GX/ZrlTBw1LqV85PUD0wd5eYQXxJSn1guZZUZZxUqT/5HJNoT7D7ctIGJmOltaUVJAKAZ6Tok/UvK7XLehugxfiqmB8tBwJvtosDF+6xjaR3SGWri1Vd/RCklo9pxn5AeeAdvMwFieCD4+qLErObHK88tLEtB0kEnZwHu0lLShF0cw5Od7HRcrttca2QcRJc5h7KejOez6sRF+tDJHjcLLGOs6ScxRjwuSHn0AFl7QrQfDy9f2d/VkXvSHE8cb41Op7oods5sg3dYNdqkOwLxP2ot3ayGkY/jdLbciv4ZJONyx0TqC2a67AoWyXT7yYN/Mdk/An0uLjuXmo3m5bLQVcsX6a6hUr+x2o5HT++PP3n7BgVpr7k8f9Uxnl1lUUAGW2eUNmIjC9FrQRoH5Z/9En6urStVDa4cYKHLzeMum5G5XWVl/saoEV//6lMjJ/05WL5osLhj6V6fGYv6kjqYlVXP7kxxfaNS8bdyVnOj+skZstWKA30BC3H9pB+rKj/bqm8fB4Wbv2S7KJeL5Y2SHqfSXmCKc7J1LbSAoH/1mlhE/ll5cOD50mJbzw8PJiUpVnGFazOSCs6KN+OAM3H0/t3+EgVcV1PjyfOOY6XquOp2zhqU6YZ96RDpVP7SUxW1GnEGJwXce4SZPXGuE9xDYp+GqUXVK1gT1VMbbKTdAV/UxueInOWC0YaBWh8k5T2HXmeLHLG02j4RPqQynKvMj6d8V0i16nKckHHRyp8Kd5BivVH+ocK/xyTjTO+MJ1c6venGb8oOqXk2+qNJ/ppNc2xgsFiLXaU62ei+ohj6zjlgy3plKT/uljV1U8MbVRpzDF+LlDdYLtrkIyZYKZs31dBbM/4pDLdT3154ky6bDp7jzwZEw903AjiIeUZ5W+TsJklgsu4YF5BYQvGecbMYDwczK08ARvrrbqhnlnU47Oz1InWjgBtd204DHw8vXcEEJilx9M8Wo6goOr86TaOsbXLKPOOxDHQH+K75FmlumxzdZSOc7u6Ou5tPyup4X9JbGg6sJ7yl1WssNlgJJovlVnvJJXFhTb8Iv29MuWxbR+VpXSzjG8uMKJZLlhoFHAMVxsCw3QsHIgEnGVrlsnBapj2R55tqLLRqkj9z65yrLk8x4pxNOKVG0KunyMTxwWUZxZtonSNtKkUVheruvqJcZH+Tkr3y6ta/iAVXWB3aIw3VYzzXJXHdu2e+LCfjpG+Iy2YlKfZJbVwuvR36QWJwIonx9WlvhjBzyNSjIvjhHXdJf1FYhaQB8qov0/5MVKzRnD3knRa0oBtj/7OS8rTLOsJn0XTCuWHSbtIl0sPS8xWXi99S5pVape1I0Drr+MpGM2hzE+lpyRmTvtq7TieXtQg0+NpDy3HsXJKxQb0N0dWu5nEA8cBLNRoq6mvLftJ5Vn+vg77CHUQ+4IHugX62mFd7Xk65JXF0RIXuWYCtnXkV7Zmg5FolwvQ/isqM+lvVBYAIy1fAKPZRhnfLaKylO6T8e0p4OBkijFE+u1Svyw2yyQXfM6X6S+KuJinTye3RUU/pzlWbH9PvMrDyvWzVtmpYrkuVnX1kw6T/bKrdI50vLS81A3GuN+QqmZi71ZdHOdLtLBBnIcEqY9Ke0srSgQoBIJcBPeX+mIEUXtJ90uM79kiJf9Kkb9TKevkwaoVGylnzrE1k0ZXKB8ctkrKI7t4Ug+z1Fh/BPAcH5tJHPNHSm9L90hV1zNV9WgELJyHzYhteKRJX/rj+GjF+ut42kGD4JjhgYFgP/YFM5t1WLuPp6s16NgGApmy9RdHZvu/IB0l3SLFGJhtHqp2rTY8ONzebggzNlghAdmlhXDD90PSptKO0npS2XZSwc3lwhqWb22hjynyfaIF/zpdefot2zLlghaWV834cqPngKmyGZKKRZJ8t2abPSnqYlVXPylvgpxfFUrLOz3PuLnBE5CUbSEVxNPqA8o/VnaoWJ5f5QTB3PQIRgiiMAIXAh0eKghiuY5cL/XGpqrRz6WzJa5VpGFs0+ekCIqivNl0ohxnkQiesCUltgNj1ubKabnp/xmdLI5P8mS/L31SIjj7vBTGNY/tGCuNk7aUWjWC5gclxtussT1cQ5uxJ+W0tPRmM87y6Y/jiVV/ReJ4Ymb0J9JBUp3WzuNppAbOPRbjfpI7nvqL4xpa377S49J5EhMJH5SGqs2mDV832fjxSb6n7ExyOEM6SnqoJ+eq+gjQ9pHDstLh0qtSzrggcQKgEyVOAlae2nLpQo3551roqxXfFrptyvXRjBczgr2x2dWIi1/ZmKVr1p5u1rFD/Z7XuLg49mR1saqrn57G203171QMdhOVDyvqxlf45Iq/rkKCtIukCM7C7yllDpe4sO0rXS/1xXiVQoDGzTtsHmW2le6V7orCFlOuhWHbKxMPRb9VPsdrdDgrHZ/k51b+W8XysUl5ZLm+7i1tIREMM+ZWjGshwXCzD2qxT69pciWMp5nzM+0ux4f6WDf58fzTgo1OfGHFvak/rB3H0+4aeJxX5yj/bsWG9AfHX2tdKGyHyAzRdH1td3rtGN8CB647e0rHtdDmfa4zFiWHKl1MukS6rijrKfmhHJiK/1Ti2OyFIGkyqLJzZbaG1yu9MZ6S3pKIxFNbNV1okP8/1T3aoL4bqngd1YzVxaqufpoZc7f7bJZsQLM3dJp8tGjHTFnOopzAZyGpNw8ZG6odM1MfkbDLpFESr78Irj4nfVbienek1MoMvdyns/T6d+F0Ne8tjH4vO13wsZHKuWa8Kd2T+ESWmzCvYpkJ4yH6m1Ir9rqcd2qhAeNg9mR0C23qcu3t8VTX+hv1067jaZgG8flkIOck+Wazncyx2W3oFL+YyWQ83E+vaWFgPGD+Q7q7QZs5VHeCxDWEc/wtaTqLAG14UcrNv9kAjSanSekF6hEKh7Atk9n2v2XKminiyWmytFzJ+SEtNxu4lJoO2sU6WfUn82HaA5zog8HGJBsxPsk3ys6qSmYhsAf+lbzv3/uKEp5cuUBe/D6PxgVck75cuDC78z3pROl+ibcDjPsH0gESM2noG9JJUqvG/uQhFXtKumZabvp/FtciwSHGxfrJabl//bNekZ+olGM4Z/D4sLRlrnIQlfXmeGrH5rfzeNpMG7R0sVHXK32wFxvYqRxjU4Yrc5S0cBTUnHKO/aimPkcn/fCg1Oxky5ry3UCK2fGkm2m/9vABFXAd/IQ0T1E5m9L3BWhF3b9/pJaDohX7kJy54YTGZhrzHjvqI9044xdFS2X8mSqsst+oIvolvaPKUeU8saa+5Leo8OeJtezLLGMjK4+F9ptkGjTLZJzalsfQ7IWa7wlyAWNmOH0uyrFi3D3xKq+43M/DZYcGy3WxqqufdKicJzdIBAwcnzxddbMRdMRxWXUTGSOf8qzQukm7quN4psQnAi0VNW03y5Oxse7Vk1YvFWVRxPimSPgyk9YbG6lGweFPFR3skvhws0+NNrTn2Kiyo1SBTxrYVfn2tZwZtEl97aQX7Xt7POVWxfU89sncOYcWy9p5PJ2bjP0LyTiPVP7MZLkqWydH1nG9BMsTWKjJRqgfZrFjH9Wdvqy+eRDsq9HHG1KM7+QmO5xRfszIs42LZtqMV9kE6VQpzm3WkT1W6Sy1DbWwt9TMwUA7bjyp/TVdGIT54Q22aQnVfbRUz0X1f0tlrSz+RM67lRrwNH15qay8uKUK/iJNkriJDAWri1Vd/QTz2ZW5VFqyKFhFKet4XPpdUdapCcf7J6X5JW4e3MAxjsGw6yJTSrmpvFYqWyRZ5gKWs/QpsjdP2buq0w2lC6VYP0+nc0np+q/UMvtiG6mn80kuWVsxKb03yafZ0cnC1UmebIynigU+wWNB5WeQqmba8O10q/t4asf2tut44hjdrtig15Vy/GLco78k/YqFwrqRY4x9kjIrSwtEQc3pY+qPwKqvtr46mCXpZHySb5Q9QJVrSpdJT2QcRydlWyh/ULJcmSWQiEiR9HiJg6CR8Qrin1K0G1/hPGfiE77dOoN2cMU2UnxGaTu5kH6Eioy1wuRitQ9upNwkN8r0GUULKTNRwveiKOzndJ9ifek4yS/W4nrL/bQyg8aq6mJVVz+MiWO9zIXln1HZ4UZgGWPnwhN2uTJR/q0oTFJmjanfKykju6MU7XIzy+H+VuFX15P7iGS9XLfqMs7v2J4DM53yjckTic/CJZ+4fl5VKk8XuebEOuJ1SFpfZ55ry6Q6Oyz1VffxVOp+2iI3veCVnZXINWqxbESyjrqOpw2SPi9IxrNDUZ5OhrSDI0O4vlh3XechfXaL8TYwjiPu5T0FlATStOFhi3afkXqyHo9Vnshytr8KJ0hfl0ZIZVtFBTdI8QT5jvJ8x5EaT6yLS7mbNOVoTimMiw9l8VQZ5aTzSqk/MKIPnjxS46SkbtGkkBkAyngKLRvgqSv3U/Zj+UjpCGkmFgpjLMdKe0dBkZ6slCg6tWaYMNbUdtfC35MCLgi/lcpBLuPYTsJ3hPSUtJ9Ut7F/gn2k7LucRX2apuyiTfRZ7oeHhGjLMdCT1cWqrn4Yb9XsCPurk43zdutkgLEdo1W2RVLO/kntA1o4T7pZ+kVaoTwXrrCqaw/18XDYzDkZ/TVK50sqy+dXUtVy9t6kBdfE1IZp4SwprmcEY5yTqQWPZljQbta0cZfl++N4GigE/XE8pcflX4oNYwbnKOkK6faibDBxLDap4xKuP7w5COvp+zM+pSAeOlSi7cvSf0u12ZPqiYsFkeKNRZ7l0MPK3yoRtD2XlFM/SSoHCyqa7v1q9FNOv4tjYeUZqLIvywQf2ApSrr5cNhpn2f9I5bry8u+neb73zz4N2kxSHe+Qz5YekNK+uAgTrOUuupxsqW8u/yf5lI0n8Z9I7J+0DTcItu0qifVGHZxWk/rDHlOnsZ7epP+ZGdTkJvrkoG/G6mJVVz8zadC57du+mY0ZQB+CZYIy9jHn/8LSBtIU6X+lkyTqJkoLSdhHJc4HgpElpLIR8MUxkwZ5qR+BTfgcl1b0Ic9F80Lp533oo6rpJapgvM9KKxVOo5T+WYrtIOV6UbabVEDd9eWKZHls4YNf+kCbuNSWfVM9Taqtt+k76o/jafo1/GuJ4yq487DeH9YfxxMB2jsSY/+sxMQBD/hc15eSwtrFkfVxXDKeE1gY5PZxbd+x0mnS36Q4hkg5t6k7OhF+F0uTpNSX/C+kZqzpY/VR9cbNn6AEW1/6pfSMVF55LE9U3ZkSB0zO9lPhVOkliX4eL0Semy2vMfaQwk5XJvV/Qsu0eVp6QXpdul/CVpA4mF+VCBg5iLlxEGgC8xWJmwvQMaaEufi8KNFfjCX6fkNlV0qp5QK0NeTANjP+4EDKOm+QjpaqeKhq2oxW1TYyNsZ4tlRlq6vieCl3w4fXFRLcuYD0l3Hwsi+el+DHemH/mMRxFGKZcurZ57F9HNhlm6QC9gH7OfZPtGeZ/czx2YrVxaqOflbUwH8nsR3sO/ZRN9jXNUj2CecS+5Jj/WppEWk26USJOvYd5wD1HIMLSjnjvMUHfSrnoLJ5inp89q3w6aTiWTSYkyXGyzH6fJG/T2l6nn5ay2W7QAW0u61ckSzDGB+ubf1t/RmgMfa6j6ccj6ZvernGA1z2Va2fY4h7G+cV97VNpLK1gyPrvF7i2DuBhUFuBMNsa1/FvXHdJlk1faxurg7Xy3TKLNAy0kek3SQCqo0lLqKD3fbRBpZ31mLJRpNfU1o4KWtndlatjH2zllR1Q2zneDp5XXWxqqufTmZVHhvXAI6xz0mrSMOk1JbTwk7SLhL1jYy2EcjtV+G4ssrjvCM47hYbqYF+QuI6uZI0s0Rwy7bwkDqXVDZutNQT1FXZRarA5/dVDjWW93eAxlDrPJ5ym970TS/XuAPKOI44lz4uNbrP9jdHUAylAI3tbbd1+7Habl7Tra+nAG06Zy+YgAk0ReCP8iLg+HGF9zZFPbPU/TkTXLH6pot5hbu/tIdE4Fk2brJsJ2KGLWcEvuFTdTO+tfD5bq6DmsuYCZ1Yc5/t7s43vfqIO0Crj2WuJx+rOSpNljlAaxKU3UygBQK82iQomSzlArBxRf2pSjvVFtfAmBWL4GpMaaC89iTQoZ5XVstLOSOw+4eE3xczDqNURnsCp9w3fZkmfSq6Rq1/3aceBr7xVhpC7JeqoHfgR9kdI5hQsDyxO4bbdaN0gNaHXeYArQ/w3NQEKggQlMQs2nHKsxy2rTJ8mzpJGqhPB7TqHm1XeUQQQFr+Tug7Sf0BPfS2keoJwB6X0kBudi1fLdF/O2bPtJquteU08rUlAuXzpdg3Y5Vn3/ApCkG1rTGBOVS9hrSBxAxwvKK/U3le3/MZFPXpOatFWy8JOEDrBbgRasMJf4gUJ3qknOzULSTZTMAEekeA4OMciY+hpxT5S5UyW8RTexqoaLHjbEeNKK4J5yrP90BhOyszVaL+rCjsId1a9ZOkt6WrpDMl/kjmFcnBmSD0YJerniD3RekZ6YlCfO/Iq3L2x0GSrTGBDVXNMchx95zEH6bw4MAfahGsvSZRl5v5VrGtRQIO0FoEhvtkKS6+VWnVNyW9WJ2bmMCQJcArvF2kg6UvSOtL3WDM7nHjv0FaqhjwqkqPlgg635KOkWaSmrVZ5LiV9DWJWTdeBbMemwmYwOAk4ACtF/v1brXhKYwn2EnSA9KDEoEbTxPPS1xAbSZgAkOXwOba9LskZv24JvAwxyzOlRLBms0ETMAEGhHggSwmgebJOfpdco6Ky0zABEygOQJLym1diQe42yVep9lMwARMIEeAT6Tmk+aW9pI+I2FHSDzcvSoxETRFspmACZiACZiACZiACbSBgL+XbANkr8IETMAETMAETMAETMAETMAETMAETMAETMAETMAETMAETMAETMAETMAETMAETMAETMAETMAETMAETMAETMAETMAETMAETMAETMAETMAETMAETMAETMAETMAETMAETMAETMAETMAETMAETMAETMAETMAETMAETMAETMAETMAETMAETMAETMAETMAETMAETMAETMAETMAETMAETMAETMAETMAETMAETMAETMAETMAETMAETMAETMAETMAETMAETMAETMAETMAETMAETMAETMAETMAETMAETMAETMAETMAETMAETMAETMAETMAETMAETMAETMAETMAETMAETMAETMAETMAETMAETMAETMAETMAETMAETMAETMAETMAETMAETMAETMAETMAETMAETMAETMAETMAETMAETMAETMAETMAETMAETMAETMAETMAETMAETMAETMAETMAETMAETMAETMAETMAETMAETMAETMAETMAETMAETMAETMAETMAETMAETMAETMAETMAETMAETMAETMAETMAETMAETMAETMAETMAETMAETMAETMAETMAETMAETMAETMAETMAETMAETMAETMAETMAETMAETMAETMAETMAETMAETMAETMAETMAETMAETMAETMAETMAETMAETMAETMAETMAETMAETMAETMAETMAETMAETMAETMAETMAETMAETMAETMAETMAETMAETMAETMAETMAETMAETMAETMAETMAETMAETMAETMAETMAETMAETMAETMAETMAETMAETMAETMAETMAETMAETMAETMAETMAETMAETMAETMAETMAETMAETMAETMAETMAETMAETMAETMAETMAETMAETMAETMAETMAETMAETMAETMAETMAETMAETMAETMAETMAETMAETMAETMAETMAETMAETMAETMAETMAETMAETMAETMAETMAETMAETMAETMAETMAETMAETMAETMAETMAETMAETKCzCQzr7OF5dCZgAiJwrbS8NFV6s9DbSjl/Z5ZmKdIZlV4l7SLZmidgvs2zsqcJmECbCHBBt5mACXQ2gfEa3kRpYWkziYAs7AVlbpRIX5GulGytERgvd/NtjZm9TcAETMAETMAEEgIEY/9X6BGl8yZ1zvadgPn2naF7MAETMAETMIEhRWB2bS2vOCNAO2VIbX3/b6z59j9jr8EETKBJAjM06Wc3EzCBgSewvobAN2dhV0fGaS0EzLcWjO7EBEygDgIO0Oqg6D5MoD0ERierYRbtmmS507ILakCXSydIS3Ta4CrGMzop73S+yVCdNQETMAETMAETGEgC12nl8Xrz9oEcSBPr/oB8+KMFxstr2bMk/hK1k62b+HYyR4/NBEzABEzABIYMgdm0pen3Zyd3wZavpDGeK70lEai9I10krSl1mnUj305j6PGYgAmYgAmYwJAjMEZbHLNnpNt1EYERGuup0mtSbMNflOcnQzrFuplvpzD0OEzABEzABExgyBE4Qlscwc27yi/QhQT4HbcfSvxmW2zLTcp/UuJHdwfSBgPfgeTndZuACZiACZjAkCRwrbY6gppO//6spx00txwOlJ5Itumfyu8uzSQNhA0mvgPBz+s0ARMwARMwgSFHYLB+HzWr9uS+0kNSBJ+Tlf+6xG+StcsGK9928fN6TMAETMAETGBIEthcWx0BDGk3fX/WzA7jv5zbVbpDiu18WvnvS/NJ/W2DnW9/83P/JmACJmACJjAkCRyhrY7Ape7vz+ZQ3z+VnpIG6vWiVj3N+A7t49IEKbb3ZeV/JC0u9Zf1B98lNdjTpb9LfHN3j3SBtLpkMwETMAETMAETGAQErtU2RMBSx/dnO6i//aVzpfSDfb4N6xTbVAO5TIrt5idGzpSWk+q2uvlupAG+Kj0q7S2tKO0i8QcRBNiwt5mACZiACZiACXQxgb58H8WM2M+lZUrbP17LzFLx0xdHSREEdVKApmFNM2ac+B8JYozPKc+sX11WN9/5NbBnJX77bVRpkPwV6+MS20IQZzMBEzABEzABE+hSAptr3BGckG7XwnbwXRdtmMGpsi1UEf13WoC2mMZ2rPRSMsarlR8u1WV18z1cA4PnhRUD/FJRf35FvYtNwARMwARMwAS6gMBYjTECqFa/P7tBbfkGqpF1YoC2rAZ8hvSGFNv+Z+U3k+q2uvnerAEy5oMrBrpeUc8r24UqfFxsAiZgAiZgAibQ4QSu0fgiSLm9hbHy3ynRbv8e2nRSgPYhjZWZpbclxh7/NdQayveX1cmXnw2ZKjH2nSoGPH9Rj8+nK3xcbAImYAImYAIm0MEEuOGns0gnNznWGeV3q0Sgs2gPbTohQON7rEslghbE7NJZ0vJSf1rdfNfVYGMbtqwY+EyJz5crfFxsAiZgAiZgAibQwQR4pRc3fNLtmhzrQUW7PzXhP5AB2kc1vuuKsbJ9/KTG8dISUjusbr6f0KBjf9F3lYXPYVUOLjcBEzABEzABE+hcAmM1tLiZN/P9GTNntIlXhJ9pYtPaHaDxgf/O0j+k2LZnlD9U4vVfO61uvjtq8LFNmzTYEP7CE78TGvi4ygRMwARMwARMoAMJEMjcJsUN//YexsjPUdyU+L+kPD8h0ZO1K0CbRQPZW3pAim16WPn9pDp/NkPdNWX9wZffl4ttG91gFATb+PFDtjYTMAETyBLgidtmAibQGQT4Ff2NpTkl/tqPj+bDeO3HT07w4XzYPMrw21prSUtHYZFerPT1UtlALM6llfLTEvtLixUDuEcp23KexGxSu6y/+b6SbEjVtXWYfBDGj9naTMAETMAETMAEOpzAZRpfzMD0JSUwW7fJbe2vGTRmqA6RnpNiW/gJiu2kGaSBsP7mu4I2Krb1UxUbSFAdPvtW+LjYBEzABEzABExgiBPorwCNV64RiFyh/JghwJmZsWeL7ebVbc5WVmFwgZHNBEzABLIEqqbhs84uNAETMIEmCfBHAF+UbpNuabJNt7sReP1V+pg0smJjopzXoT19V1jRhYtNwARMwARMwAQGO4GttIExo8PrN1vfCPBqE56TJV7zlm2cCqg/tVzhZRMwARMwARMwgaFNYDlt/toSrx355f4I0MYqz89D8L8QLC7ZWicwTE3+KMH0OInlsG2V4Y8iJkn8cYfNBEzABEzABEzABP5N4HLl3pBelPgNsicK8f0UPxbLf1fEj93aekdgdjU7R+IvbqcUef6nBH5eY4K0vGQzARMwgYYE0qe7ho6uNAETMAETaInAKHkzUzlSelK6S+IbNZsJmIAJmIAJmIAJmIAJmIAJmEC3Efj/cinYBFrUjcsAAAAASUVORK5CYII=;" vertex="1" parent="r9puiUjmGgyDkKUMW15J-5">
          <mxGeometry x="-1" y="250" width="249.33" height="68" as="geometry" />
        </mxCell>
        <mxCell id="r9puiUjmGgyDkKUMW15J-11" value="" style="endArrow=classic;html=1;rounded=0;" parent="1" edge="1">
          <mxGeometry width="50" height="50" relative="1" as="geometry">
            <mxPoint x="480" y="310" as="sourcePoint" />
            <mxPoint x="320" y="460" as="targetPoint" />
          </mxGeometry>
        </mxCell>
        <mxCell id="r9puiUjmGgyDkKUMW15J-20" value="" style="curved=1;endArrow=none;html=1;rounded=0;endFill=0;strokeWidth=2;strokeColor=#FF0000;dashed=1;" parent="1" edge="1">
          <mxGeometry width="50" height="50" relative="1" as="geometry">
            <mxPoint x="360" y="430" as="sourcePoint" />
            <mxPoint x="680" y="320" as="targetPoint" />
            <Array as="points">
              <mxPoint x="450" y="350" />
              <mxPoint x="520" y="320" />
            </Array>
          </mxGeometry>
        </mxCell>
        <mxCell id="r9puiUjmGgyDkKUMW15J-21" value="&lt;font style=&quot;font-size: 17px;&quot;&gt;ix&lt;/font&gt;" style="text;html=1;strokeColor=none;fillColor=none;align=center;verticalAlign=middle;whiteSpace=wrap;rounded=0;" parent="1" vertex="1">
          <mxGeometry x="320" y="450" width="60" height="30" as="geometry" />
        </mxCell>
        <mxCell id="r9puiUjmGgyDkKUMW15J-22" value="&lt;font style=&quot;font-size: 17px;&quot;&gt;y&lt;/font&gt;" style="text;html=1;strokeColor=none;fillColor=none;align=center;verticalAlign=middle;whiteSpace=wrap;rounded=0;" parent="1" vertex="1">
          <mxGeometry x="470" y="60" width="60" height="30" as="geometry" />
        </mxCell>
        <mxCell id="r9puiUjmGgyDkKUMW15J-23" value="&lt;font style=&quot;font-size: 17px;&quot;&gt;y&lt;/font&gt;" style="text;html=1;strokeColor=none;fillColor=none;align=center;verticalAlign=middle;whiteSpace=wrap;rounded=0;" parent="1" vertex="1">
          <mxGeometry x="470" y="60" width="60" height="30" as="geometry" />
        </mxCell>
        <mxCell id="r9puiUjmGgyDkKUMW15J-24" value="&lt;font style=&quot;font-size: 17px;&quot;&gt;x&lt;/font&gt;" style="text;html=1;strokeColor=none;fillColor=none;align=center;verticalAlign=middle;whiteSpace=wrap;rounded=0;" parent="1" vertex="1">
          <mxGeometry x="730" y="320" width="60" height="30" as="geometry" />
        </mxCell>
        <mxCell id="r9puiUjmGgyDkKUMW15J-50" value="x-y" style="ellipse;whiteSpace=wrap;html=1;aspect=fixed;fillColor=#d5e8d4;strokeColor=#82b366;strokeWidth=2;" parent="1" vertex="1">
          <mxGeometry x="568" y="20" width="85" height="85" as="geometry" />
        </mxCell>
        <mxCell id="r9puiUjmGgyDkKUMW15J-54" value="" style="endArrow=classic;html=1;rounded=0;entryX=0.5;entryY=0;entryDx=0;entryDy=0;exitX=0.5;exitY=1;exitDx=0;exitDy=0;" parent="1" source="r9puiUjmGgyDkKUMW15J-50" target="r9puiUjmGgyDkKUMW15J-52" edge="1">
          <mxGeometry width="50" height="50" relative="1" as="geometry">
            <mxPoint x="581" y="110" as="sourcePoint" />
            <mxPoint x="716" y="90" as="targetPoint" />
          </mxGeometry>
        </mxCell>
        <mxCell id="SdYlDd8xHXBLDSkOT2ET-61" value="&lt;font style=&quot;font-size: 10px;&quot;&gt;Parent&lt;/font&gt;" style="text;html=1;strokeColor=none;fillColor=none;align=left;verticalAlign=middle;whiteSpace=wrap;rounded=0;" parent="1" vertex="1">
          <mxGeometry x="662" y="47.5" width="84" height="30" as="geometry" />
        </mxCell>
      </root>
    </mxGraphModel>
  </diagram>
</mxfile>
